<svg xmlns="http://www.w3.org/2000/svg" viewBox="0 0 694.74 266.12"><defs><style>.cls-1{fill:#252626;}.cls-2{fill:#b9144d;}</style></defs><g id="Livello_2" data-name="Livello 2"><g id="Livello_1-2" data-name="Livello 1"><path class="cls-1" d="M114.5,231.46V265h-8.8V231.46h-10V224h28.86v7.46Z"/><path class="cls-1" d="M133.73,265l15.61-41h10l15.83,41h-10l-3.34-8.71H146L143.15,265Zm26.12-15.6-4.6-13.26a20.4,20.4,0,0,1-.5-2c-.21-1-.42-2.12-.65-3.51-.24,1.33-.47,2.52-.7,3.58s-.39,1.76-.5,2.11l-4.43,13.09Z"/><path class="cls-1" d="M203.18,231.46V265h-8.8V231.46h-10V224h28.86v7.46Z"/><path class="cls-1" d="M248.16,231.46V265h-8.8V231.46h-10V224h28.86v7.46Z"/><path class="cls-1" d="M316.4,244.6a21.44,21.44,0,0,1-1.64,8.32,20.32,20.32,0,0,1-4.72,6.89,22.57,22.57,0,0,1-7.2,4.68,21.85,21.85,0,0,1-15.65.35,22.73,22.73,0,0,1-6.6-3.66,20.83,20.83,0,0,1-8-16.58,21.37,21.37,0,0,1,1.62-8.31,20.56,20.56,0,0,1,4.77-6.91,22.18,22.18,0,0,1,23.88-4.65,22.33,22.33,0,0,1,7.16,4.65,21,21,0,0,1,4.74,6.92A21.4,21.4,0,0,1,316.4,244.6Zm-21.85,13.7a12,12,0,0,0,9.2-3.91,15,15,0,0,0,0-19.6,12.65,12.65,0,0,0-18.41,0,15.07,15.07,0,0,0-.06,19.64A12.19,12.19,0,0,0,294.55,258.3Z"/><path class="cls-1" d="M377.27,244.6a21.25,21.25,0,0,1-1.64,8.32,20.32,20.32,0,0,1-4.72,6.89,22.57,22.57,0,0,1-7.2,4.68,21.85,21.85,0,0,1-15.65.35,22.55,22.55,0,0,1-6.59-3.66,20.8,20.8,0,0,1-8-16.58,21.2,21.2,0,0,1,1.63-8.31,20.53,20.53,0,0,1,4.76-6.91,22.18,22.18,0,0,1,23.88-4.65,22.33,22.33,0,0,1,7.16,4.65,20.8,20.8,0,0,1,4.74,6.92A21.4,21.4,0,0,1,377.27,244.6Zm-21.85,13.7a12,12,0,0,0,9.2-3.91,15,15,0,0,0,0-19.6,12.65,12.65,0,0,0-18.41,0,15.05,15.05,0,0,0-.05,19.64A12.16,12.16,0,0,0,355.42,258.3Z"/><path class="cls-1" d="M420.21,259.81l4.87-5.52a7.49,7.49,0,0,0,3,3.57,8.37,8.37,0,0,0,4.6,1.31,7.5,7.5,0,0,0,4.87-1.46,4.77,4.77,0,0,0,1.79-3.92c0-1.95-2-3.88-6-5.8-1.29-.62-2.31-1.12-3.06-1.52q-5.37-2.79-7.45-5.47a10.13,10.13,0,0,1-2.07-6.38,10.25,10.25,0,0,1,4-8.33q4-3.27,10.43-3.27a14.63,14.63,0,0,1,6.43,1.31,12.9,12.9,0,0,1,4.78,4.07l-5.18,5a6.38,6.38,0,0,0-2.45-2.67,7.25,7.25,0,0,0-3.69-.89,6.41,6.41,0,0,0-4.2,1.31,4.14,4.14,0,0,0-1.6,3.37q0,3.26,6.33,5.94l1.94.84a21.75,21.75,0,0,1,7.72,5.38,10.37,10.37,0,0,1,2.5,6.84,11.6,11.6,0,0,1-3.93,9.2q-3.94,3.44-10.58,3.44a18.43,18.43,0,0,1-8.07-1.63A10.86,10.86,0,0,1,420.21,259.81Z"/><path class="cls-1" d="M466.45,265V224h8.77v16.45H493V224h8.77v41H493V247.88h-17.8V265Z"/><path class="cls-1" d="M564.39,244.6a21.25,21.25,0,0,1-1.64,8.32,20.32,20.32,0,0,1-4.72,6.89,22.57,22.57,0,0,1-7.2,4.68,21.85,21.85,0,0,1-15.65.35,22.73,22.73,0,0,1-6.6-3.66,20.83,20.83,0,0,1-8-16.58,21.37,21.37,0,0,1,1.62-8.31,20.71,20.71,0,0,1,4.77-6.91,22.18,22.18,0,0,1,23.88-4.65,22.33,22.33,0,0,1,7.16,4.65,21,21,0,0,1,4.74,6.92A21.4,21.4,0,0,1,564.39,244.6Zm-21.85,13.7a12,12,0,0,0,9.2-3.91,15,15,0,0,0,0-19.6,12.65,12.65,0,0,0-18.41,0,15.05,15.05,0,0,0,0,19.64A12.16,12.16,0,0,0,542.54,258.3Z"/><path class="cls-1" d="M583.27,265V224h10.08q8.07,0,11.92,3.09t3.86,9.52a11.8,11.8,0,0,1-3.88,9.36q-3.88,3.39-10.75,3.39h-2.41V265Zm8.82-22.5h1.26q3.58,0,5.21-1.48t1.63-4.76a5.5,5.5,0,0,0-1.63-4.42q-1.62-1.38-5.21-1.38h-1.26Z"/><rect class="cls-1" x="53.97" y="236.06" width="16.9" height="16.9" transform="translate(-154.61 115.75) rotate(-45)"/><rect class="cls-1" x="633.93" y="236.06" width="16.9" height="16.9" transform="translate(15.25 525.84) rotate(-45)"/><path class="cls-1" d="M496.24,90.39h.08v-.13h.08v-.12h.08V90h.08v-.12h.09v-.12h.08v-.13h.08v-.13h.08v-.12H497V89.3h.09v-.12h.08v-.12h.08v-.12h.08v-.13h.08v-.12h.08v-.12h.09v-.12h.08v-.12h.08v-.12h.08v-.13h.08V88H498v-.12H498v-.12h.08V87.6h.08v-.12h.08v-.13h.08v-.13h.08v-.12h.09V87h.08v-.12h.08v-.12h.08v-.12h.08V86.5h.08v-.13H499v-.12h.08v-.12h.08V86h.08V85.9h.08v-.13h.08v-.13h.09v-.12h.08v-.12h.08v-.12h.08v-.12h.08v-.12h.09v-.13H500V84.8h.08v-.12h.08v-.12h.08v-.12h.08v-.12h.09v-.13h.08v-.13h.08V84h.08v-.12h.08v-.12h.08v-.12h.09v-.12H501v-.13h.08v-.13h.08V83.1h.08V83h.08v-.12h.09v-.12h.08v-.13h.08v-.13h.08v-.12h.08v-.12h.08v-.12h.09V82H502v-.12H502v-.1l-16.54-.3v8.82l10.74.21Z"/><path class="cls-1" d="M485.47,38.62l15.42.09v-.12H501v-.12h.08v-.12h.09v-.12h.08v-.12h.08V38h.08v-.12h.08v-.12h.08v-.12h.09V37.5h.08v-.12h.08v-.13h.08v-.12H502V37H502v-.12h.09v-.12h.08v-.12h.08v-.13h.08V36.4h.08v-.12h.08v-.12h.09V36h.08v-.12h.08V35.8h.08v-.13h.08v-.12H503v-.12h.09v-.12h.08v-.12h.08v-.12h.08v-.13h.08v-.13h.08V34.7h.09v-.12h.08v-.12h.08v-.12h.08v-.12h.08v-.13H504V34h.08v-.12h.08v-.12h.08v-.12h.08v-.12h.08v-.13h.09v-.13h.08v-.12h.08V33h.08v-.12h.08v-.12h.08v-.12H505v-.13h.08v-.12h.08v-.12h.08v-.12h.08V32h.08v-.12h.09v-.13h.08v-.13h.08v-.12h.08v-.12h.08V31.3h.08v-.12H506v-.12H506v-.13h.08v-.12h.08v-.12h.08v-.12h.08v-.12h.09v-.12h.08V30.2h.08v-.12h.08V30l-21.22-.13Z"/><path class="cls-1" d="M410.52,35.78V5.41h-.08v.12h-.08v.12h-.08v.12h-.08V5.9h-.08V6H410v.12h-.09v.12h-.08v.12h-.08V6.5h-.08v.12h-.08v.13h-.08v.12h-.09V7h-.08v.12h-.08v.12h-.08v.12h-.08v.13h-.08V7.6H409v.12h-.08v.12h-.08V8h-.08v.12h-.08V8.2h-.08v.13h-.09v.12h-.08v.12h-.08v.12h-.08v.12h-.08v.12h-.08v.13H408v.12h-.08V9.3h-.08v.12h-.08v.12h-.08v.12h-.09v.12h-.08v.13h-.08V10h-.08v.12h-.08v.12h-.08v.12h-.09v.12H407v.13h-.08v.12h-.08v.12h-.08V11h-.08v.12h-.09v.12h-.08v.12h-.08v.13h-.08v.12h-.08v.12h-.08v.12h-.09V12H406v.12h-.08v.13h-.08V40Z"/><path class="cls-1" d="M456.21,168.5l-3.51-.09L452.63,5.16h-.08v.13h-.08v.12h-.08v.12h-.08v.12h-.08v.12h-.09v.12h-.08V6H452v.12h-.08v.12h-.08v.12h-.09V6.5h-.08v.12h-.08v.12h-.08v.13h-.08V7h-.08v.12h-.09v.12h-.08v.12h-.08v.12H451V7.6h-.08v.12h-.08v.12h-.09V8h-.08v.12h-.08V8.2h-.08v.12h-.08v.13h-.08v.12h-.09v.12h-.08v.12h-.08v.12H450v.12h-.08v.13h-.08V9.3h-.09v.12h-.08v.12h-.08v.12h-.08v.12h-.08V9.9h-.08V10h-.09v.12h-.08v.12h-.08v.12H449v.12H449v.12h-.09v.13h-.08v.12h-.08V11h-.08v.12h-.08v.12h-.08v.12h-.09v.12h-.08v.13h-.08v.12h-.08v.12h-.08V12H448c0,53.47,0,111.74.07,165.2,21.17.54,31.76.91,52.93,1.85v-.13h.08v-.13h.08v-.12h.08v-.12h.09v-.12h.08v-.12h.08v-.13h.08V178h.08v-.13h.09v-.12h.08v-.12h.08v-.12H502v-.13H502v-.13h.08v-.13h.09v-.12h.08V177h.08v-.12h.08v-.13h.08v-.13h.08v-.13h.09v-.13h.08v-.12h.08v-.12h.08V176H503v-.13h.08v-.13h.09v-.13h.08v-.12h.08v-.12h.08v-.12h.08v-.13h.08V175h.09v-.13h.08v-.13h.08v-.12h.08v-.12H504v-.12h.08v-.13h.09v-.13h.08V174h.08v-.12h.08v-.12h.08v-.12h.09v-.13h.08v-.13h.08v-.13h.08v-.13h.08v-.12H505v-.12h.09v-.12h.08v-.13h.08v-.13h.08v-.13h.08v-.12h.08v-.12h.09v-.12h.08V172h.08v-.13h.08v-.13h.08v-.13H506v-.12h.09v-.12h.08v-.12h.08v-.13h.08V171h.08v-.13h.08v-.12h.09v-.12h.08v-.12h.08v-.13h.08v-.13h.08v0C487.11,169.37,476.7,169,456.21,168.5Z"/><path class="cls-1" d="M563,172.92c-8.82-.55-14-.85-23.44-1.35l-3.4-.18L536.1,30.46l-19.84-.15,0-24.85h-.08v.12h-.08V5.7H516v.12h-.08v.12h-.08v.13h-.09v.12h-.09v.12h-.08v.12h-.08v.12h-.08v.12h-.08v.12h-.09v.13h-.08V7h-.08v.12H515v.12h-.08V7.4h-.08v.12h-.09v.13h-.08v.12h-.08v.12h-.08V8h-.08v.12h-.08v.12h-.09v.12h-.08V8.5h-.08v.12H514v.12H514v.12h-.08V9h-.09V9.1h-.08v.13h-.08v.12h-.08v.12h-.08v.12h-.08v.12h-.09v.12h-.08V10h-.08v.13h-.08v.12H513v.12h-.09v.12h-.09v.12h-.08v19.5s.7,0,0,0v9l18.71.15.09,141.09c10.25.55,15.38.85,25.62,1.48v-.12h.08v-.12h.08v-.13h.09v-.13h.08v-.13h.08V181h.08v-.13h.08v-.12h.08v-.12h.09v-.13H558v-.13h.08v-.13h.08v-.13h.08V180h.08v-.12h.09v-.13h.08v-.13h.08v-.13h.08v-.13h.08v-.12h.09v-.12h.09v-.12H559v-.13H559v-.13h.08v-.13h.08v-.13h.09v-.12h.08v-.12h.08v-.13h.08v-.13h.08V178h.08v-.13h.09v-.12h.08v-.12h.08v-.12H560v-.13h.08v-.13h.08v-.13h.09V177h.08v-.12h.08v-.12h.08v-.13h.08v-.13h.08v-.13h.09v-.13h.08v-.12h.08V176H561v-.13h.08v-.13h.08v-.13h.09v-.13h.08v-.13h.08v-.12h.08v-.12h.08V175h.09v-.13h.08v-.13h.08v-.13h.08v-.12H562v-.12h.08v-.13h.09v-.13h.08v-.13h.08V174h.08v-.13h.08v-.12h.08v-.12h.09v-.13h.08v-.13h.08v-.13h.08v-.13H563V173H563Z"/><path class="cls-1" d="M414.1,167.8l-3.55-.05,0-94.24-4.66,4.26,0,98.71c10.26.12,15.38.21,25.64.43v-.12h.09v-.13h.08v-.13h.08v-.12h.08v-.12H432v-.12H432v-.12h.09v-.13h.08v-.13h.08v-.13h.08v-.12h.08v-.12h.08v-.12h.09v-.12h.08v-.13h.08V175h.08v-.12h.08v-.12H433v-.12h.09v-.12h.08v-.13h.08v-.13h.08v-.13h.08V174h.08v-.12h.09v-.12h.08v-.12h.08v-.13h.08v-.13h.08v-.12H434v-.12h.09V173h.08v-.12h.08v-.13h.08v-.13h.08v-.12h.09v-.12h.08v-.12h.08v-.12h.08v-.12h.08v-.13h.08v-.13H435v-.12h.08v-.12h.08v-.12h.08v-.12h.08v-.13h.08v-.13h.09V171h.08v-.12h.08v-.12h.08v-.12h.08v-.12h.08v-.13H436v-.13H436v-.12h.08V170h.08v-.12h.08v-.12h.08v-.13h.09v-.13h.08v-.12h.08v-.12h.08v-.12h.08V169h.08v-.12h.09v-.13H437v-.13h.08v-.12h.08v-.12h.08v-.12h.09v-.1C428.65,168,423.51,167.91,414.1,167.8Z"/><path class="cls-1" d="M639.4,31.48v8.79l8,.11v-.13h.08v-.12h.08V40h.09v-.12h.08v-.12h.08v-.13h.08v-.13H648V39.4H648v-.12h.09v-.12h.08V39h.08v-.12h.08v-.13h.08v-.13h.08v-.12h.09v-.12h.08v-.12h.08v-.12h.08v-.13h.08v-.13H649v-.12h.09V37.7h.08v-.12h.08v-.12h.08v-.12h.08v-.13h.09v-.12h.08V37h.08v-.12h.08v-.12h.08v-.12h.08v-.13H650v-.13h.08v-.12h.08v-.12h.08V36h.08v-.12h.08v-.12h.09v-.13h.08v-.12h.08v-.12h.08v-.12h.08v-.12h.08V35H651V34.9h.08v-.13h.08v-.12h.08v-.12h.08v-.12h.08V34.3h.09v-.12h.08v-.13h.08v-.12h.08v-.12h.08v-.12h.08v-.12H652v-.12H652v-.13h.08V33.2h.08v-.12h.08V33h.09v-.12h.08v-.12h.08v-.13h.08v-.13h.08v-.12h.08v-.12h.09v-.12h.08V32H653v-.12h.08v-.13h.08v-.08Z"/><polygon class="cls-1" points="665.5 198.66 665.5 5.34 665.42 5.34 665.42 5.46 665.34 5.46 665.34 5.58 665.26 5.58 665.26 5.71 665.17 5.71 665.17 5.83 665.09 5.83 665.09 5.95 665.01 5.95 665.01 6.07 664.93 6.07 664.93 6.19 664.85 6.19 664.85 6.31 664.77 6.31 664.77 6.43 664.68 6.43 664.68 6.56 664.6 6.56 664.6 6.68 664.52 6.68 664.52 6.8 664.44 6.8 664.44 6.92 664.36 6.92 664.36 7.04 664.27 7.04 664.27 7.16 664.19 7.16 664.19 7.29 664.11 7.29 664.11 7.41 664.03 7.41 664.03 7.53 663.95 7.53 663.95 7.65 663.87 7.65 663.87 7.77 663.78 7.77 663.78 7.89 663.7 7.89 663.7 8.02 663.62 8.02 663.62 8.14 663.54 8.14 663.54 8.26 663.46 8.26 663.46 8.38 663.38 8.38 663.38 8.5 663.29 8.5 663.29 8.62 663.21 8.62 663.21 8.74 663.13 8.74 663.13 8.87 663.05 8.87 663.05 8.99 662.97 8.99 662.97 9.11 662.89 9.11 662.89 9.23 662.8 9.23 662.8 9.35 662.72 9.35 662.72 9.47 662.64 9.47 662.64 9.6 662.56 9.6 662.56 9.72 662.48 9.72 662.48 9.84 662.4 9.84 662.4 9.96 662.31 9.96 662.31 10.08 662.23 10.08 662.23 10.2 662.15 10.2 662.15 10.32 662.07 10.32 662.07 10.45 661.99 10.45 661.99 10.57 661.91 10.57 661.91 10.69 661.82 10.69 661.82 10.81 661.74 10.81 661.74 10.93 661.66 10.93 661.66 11.05 661.58 11.05 661.58 11.18 661.5 11.18 661.5 11.3 661.41 11.3 661.41 11.42 661.33 11.42 661.33 11.54 661.25 11.54 661.25 11.66 661.17 11.66 661.17 11.78 661.09 11.78 661.09 11.9 661.01 11.9 661.01 12.03 660.92 12.03 660.92 12.15 660.84 12.15 660.84 207.34 686.49 207.34 686.49 207.22 686.57 207.22 686.57 207.09 686.65 207.09 686.65 206.97 686.73 206.97 686.73 206.85 686.81 206.85 686.81 206.73 686.89 206.73 686.89 206.61 686.98 206.61 686.98 206.49 687.06 206.49 687.06 206.37 687.14 206.37 687.14 206.24 687.22 206.24 687.22 206.12 687.3 206.12 687.3 206 687.39 206 687.39 205.88 687.47 205.88 687.47 205.76 687.55 205.76 687.55 205.64 687.63 205.64 687.63 205.51 687.71 205.51 687.71 205.39 687.79 205.39 687.79 205.27 687.88 205.27 687.88 205.15 687.96 205.15 687.96 205.03 688.04 205.03 688.04 204.91 688.12 204.91 688.12 204.78 688.2 204.78 688.2 204.66 688.28 204.66 688.28 204.54 688.37 204.54 688.37 204.42 688.45 204.42 688.45 204.3 688.53 204.3 688.53 204.18 688.61 204.18 688.61 204.06 688.69 204.06 688.69 203.94 688.77 203.94 688.77 203.81 688.86 203.81 688.86 203.69 688.94 203.69 688.94 203.57 689.02 203.57 689.02 203.45 689.1 203.45 689.1 203.33 689.18 203.33 689.18 203.21 689.26 203.21 689.26 203.08 689.35 203.08 689.35 202.96 689.43 202.96 689.43 202.84 689.51 202.84 689.51 202.72 689.59 202.72 689.59 202.6 689.67 202.6 689.67 202.48 689.75 202.48 689.75 202.35 689.84 202.35 689.84 202.23 689.92 202.23 689.92 202.11 690 202.11 690 201.99 690.08 201.99 690.08 201.87 690.16 201.87 690.16 201.75 690.25 201.75 690.25 201.63 690.33 201.63 690.33 201.5 690.41 201.5 690.41 201.38 690.49 201.38 690.49 201.26 690.57 201.26 690.57 201.14 690.65 201.14 690.65 201.02 690.74 201.02 690.74 200.9 690.82 200.9 690.82 200.77 690.9 200.77 690.9 200.65 690.98 200.65 690.98 200.53 691.06 200.53 691.06 200.41 691.14 200.41 691.14 200.29 691.23 200.29 691.23 200.17 691.31 200.17 691.31 200.04 691.39 200.04 691.39 199.92 691.47 199.92 691.47 199.8 691.55 199.8 691.55 199.68 691.63 199.68 691.63 199.56 691.72 199.56 691.72 199.44 691.8 199.44 691.8 199.32 691.88 199.32 691.88 199.19 691.96 199.19 691.96 199.07 692.04 199.07 692.04 198.95 692.13 198.95 692.13 198.83 692.21 198.83 692.21 198.71 692.29 198.71 692.29 198.66 665.5 198.66"/><path class="cls-1" d="M610,175.8l-3.32-.25-.06-144.47-17.84-.19v.05l-19.83-.2V39.5l8,.08v-.12H577v-.12h.08v-.13h.08v-.13h.08V39h.08v-.12h.09v-.12h.08v-.12h.08v-.12h.08v-.13h.08v-.12h.08v-.12h.09V38H578v-.12H578v-.12h.08v-.13h.08v-.13h.09v-.12h.08v-.12h.08v-.12h.08V37h.08v-.12h.08v-.13h.09v-.12h.08v-.12h.08v-.12H579V36.3h.08v-.12h.08v-.13h.09v-.13h.08v-.12h.08v-.12h.08v-.12h.08v-.12h.08v-.12h.09V35.2h.08v-.12h.08V35H580v-.12h.08v-.12h.08V34.6h.09v-.13h.08v-.12h.08v-.12h.08v-.12h.08V34h.08v-.12h.09v-.13h.08v-.13h.08V33.5H581v-.12h.08v-.12h.09v-.12h.08V33h.08v-.13h.08v-.12h.08v-.12h.08v-.12h.09v-.12h.08v-.12h.08v-.13h.08V32H582v-.12H582V31.8h.05c0,2.32,0,4.8,0,7.78l19.83.22L602,184.49c10.23.78,15.35,1.2,25.58,2.07v-.13h.08v-.13h.09v-.13h.08v-.13h.08V186H628v-.12h.08v-.13h.09v-.13h.08v-.13h.08v-.13h.08v-.13h.08v-.13h.08V185h.09v-.13h.08v-.13h.08v-.13h.08v-.13H629v-.13h.08v-.12h.09v-.13h.08V184h.08v-.13h.08v-.13h.08v-.13h.08v-.13h.09v-.13h.08v-.13h.08v-.13h.08V183H630v-.13H630v-.13h.09v-.12h.08v-.13h.08v-.13h.08v-.13h.08v-.13h.08v-.13h.09v-.12h.08v-.13h.08v-.13h.08v-.13h.08v-.13H631v-.13h.08v-.13h.08v-.12h.08V181h.08v-.13h.08v-.13h.09v-.13h.08v-.13h.08v-.12h.08v-.13h.08v-.13h.08V180H632v-.13h.08v-.13h.08v-.13h.08v-.12h.08v-.13h.08v-.13h.09v-.13h.08V179h.08v-.13h.08v-.12h.08v-.13h.08v-.13H633v-.13h.08v-.13h.08v-.13h.08v-.13h.08v-.12h.08v-.13h.09v-.11C624.6,176.94,619.47,176.53,610,175.8Z"/><path class="cls-1" d="M230.7,27.51l-5.79,0a4.73,4.73,0,0,0-3,1.14,4,4,0,0,0-1.1,2.68V36.2h1.66a7.55,7.55,0,0,1,5.37,2.19,6.79,6.79,0,0,1,2.34,5.07c0,9.06,0,15,0,22.14l4.64-3.74,0-30.67a3.16,3.16,0,0,0-1.2-2.46,4,4,0,0,0-2.85-1.21"/><path class="cls-1" d="M141.77,115.61a4.37,4.37,0,0,0,3-1.5,3.89,3.89,0,0,0,1.32-2.86l0-76.48a3.44,3.44,0,0,0-1.24-2.63,3.86,3.86,0,0,0-2.78-1.22H142L132.1,31v8.58l1.64,0a7.45,7.45,0,0,1,5.38,2.23,7.09,7.09,0,0,1,2.33,5.22l0,68.57Z"/><path class="cls-1" d="M103.22,179.64l-3.93.36V5.34h-.08v.12h-.09v.12H99v.13H99v.12h-.08V6H98.8v.12h-.08v.12h-.09v.12h-.08v.12h-.08v.13h-.08v.12h-.08V6.8h-.08v.12h-.09V7h-.08v.12H98v.13H97.9v.12h-.08v.12h-.08v.12h-.09v.12h-.08v.12h-.08V8h-.08v.12h-.08v.12h-.08v.12h-.09V8.5h-.08v.12H97v.12h-.08v.13h-.08V9h-.08v.12h-.09v.12h-.08v.12h-.08v.12h-.08V9.6h-.08v.12h-.09v.12h-.08V10H96.1v.12H96v.12h-.08v.12h-.08v.13h-.09v.12h-.08v.12h-.08v.12h-.08v.12h-.08v.12h-.08v.13h-.09v.12H95.2v.12h-.08v.12H95v.12H95v.12h-.08v.12h-.09V12h-.08v.12h-.08V188.33c10.23-1,15.34-1.4,25.58-2.26V186h.08v-.11h.08v-.11h.08v-.12h.08v-.12h.09v-.12h.08v-.11h.08v-.11h.08V185h.08v-.12H121v-.12h.09v-.12h.08v-.11h.08v-.11h.08v-.11h.08v-.11h.08V184h.09v-.12h.08v-.12h.08v-.11h.08v-.11h.08v-.11H122v-.12h.09v-.12h.08V183h.08v-.11h.08v-.11h.08v-.11h.08v-.11h.09v-.12h.08v-.12h.08v-.12h.08v-.11h.08V182H123v-.11h.09v-.12h.08v-.12h.08v-.12h.08v-.11h.08v-.11h.09v-.11h.08V181h.08v-.12h.08v-.12h.08v-.12h.08v-.11H124v-.11h.08v-.11h.08v-.12h.08V180h.08v-.12h.08v-.11h.09v-.11h.08v-.11h.08v-.11h.08v-.12h.08v-.12h.08V179H125v-.11H125v-.11h.08v-.11h.08v-.12h.08v-.12h.08v-.12h.09v-.11h.08v-.11h.08v-.11h.08v-.12h.08v-.12h.08v-.06C117.49,178.33,112.4,178.78,103.22,179.64Z"/><path class="cls-1" d="M317.6,142.42a3.85,3.85,0,0,0,4.19-3.73l0-49.58-9.38.1V69.68h-.08v.12h-.08v.12h-.08V70h-.08v.12H312v.12H312v.12h-.09v.12h-.08v.12h-.08v.12h-.08v.12h-.08V71h-.08v.12h-.09v.13h-.08v.12h-.08v.12h-.08v.12h-.08v.12H311v.12h-.09V72h-.08v.12h-.08v.12h-.08v.12h-.08v.12h-.08v.12h-.09v.12h-.08v.13h-.08V73h-.08v.12h-.08v.12H310v.12h-.08v.12h-.08v.12h-.08v.12h-.08v.12h-.08v.12h-.09v.12h-.08v.12h-.08v.12h-.08v.13h-.08v.12h-.08v.12H309v.12h-.08v.12h-.08V75h-.08v.12h-.08v.12h-.08v.12h-.09v.12h-.08v.12h-.08v.12h-.08v.12h-.08V76h-.08v.12h-.06V97.84l9.1-.09c0,18.24,0,28.69,0,44.68Z"/><path class="cls-1" d="M325.43,52.83h-3.61V30.72a4,4,0,0,0-1.19-2.64,4,4,0,0,0-2.89-.94h-5.47a4.17,4.17,0,0,0-3,1,4.05,4.05,0,0,0-1.21,2.67v5h1.38A7.26,7.26,0,0,1,317.17,43c0,7.09,0,10.82,0,17.61,10.52-.08,17.12-.12,26.21-.16h.08v-.12h.08v-.13h.08v-.12h.08V60h.09v-.12h.08v-.12h.08v-.12H344v-.13h.08v-.12h.08v-.12h.09V59.1h.08V59h.08v-.12h.08v-.12h.08v-.13h.08v-.12h.09v-.12h.08v-.12h.08v-.12H345V58h.08v-.13h.08v-.12h.09v-.12h.08v-.12h.08V57.4h.08v-.12h.08v-.12h.08V57h.09v-.12h.08v-.12h.08v-.12H346v-.12h.08v-.12h.08V56.3h.09v-.12h.08v-.12h.08v-.12h.08v-.12h.08V55.7h.09v-.12h.08v-.12h.08v-.12h.08v-.12H347v-.12H347V55h.09v-.12h.08v-.13h.08V54.6h.08v-.12h.08v-.12h.08v-.12h.09v-.12h.08V54h.08v-.12h.08v-.12h.08v-.12H348v-.12h.09v-.12h.08v-.12h.08v-.13h.08V53h.08V52.9h.08v-.12h.09v0C340,52.76,334.81,52.78,325.43,52.83Z"/><path class="cls-1" d="M156.45,141.78a38.49,38.49,0,0,1-14.27,3.71c-4.15.27-6.7.43-10.11.67v8.12l1.64-.11a34.52,34.52,0,0,0,12.94-3.36,37.37,37.37,0,0,0,10.6-7.57,34.57,34.57,0,0,0,3-3.54A41.45,41.45,0,0,1,156.45,141.78Z"/><path class="cls-1" d="M379.51,167.58l-12.23,0h-3.62V5.41h-.07v.12h-.09v.12h-.08v.12h-.08v.12h-.08V6h-.08v.12h-.08v.13H363v.12h-.08V6.5h-.08v.12h-.08v.12h-.08v.12h-.08V7h-.09v.12h-.08v.12h-.08v.12h-.08v.12h-.08v.12h-.08v.13H362v.12H362V8h-.08v.12h-.08V8.2h-.08v.12h-.08v.12h-.09v.13h-.08v.12h-.08v.12h-.08v.12h-.08v.12h-.09v.12h-.08V9.3H361v.12h-.08v.12h-.08v.12h-.08v.12h-.09V9.9h-.08V10h-.08v.13h-.08v.12h-.08v.12h-.08v.12h-.09v.12h-.08v.12H360v.13h-.08V11h-.08v.12h-.08v.12h-.09v.12h-.08v.12h-.08v.12h-.08v.13h-.08v.12h-.08V12h-.09v.12h-.08v.12H359c0,53.09,0,111,0,164.08,10.37,0,15.55,0,25.92,0v-.12H385v-.12h.08v-.12h.08v-.12h.08v-.12h.08v-.13h.09v-.13h.08v-.12h.08v-.12h.08v-.12h.08V175h.08v-.12h.09v-.13H386v-.12h.08v-.12h.08v-.12h.08v-.12h.08v-.12h.09V174h.08v-.13h.08v-.12h.08v-.12h.08v-.12h.08v-.12h.09v-.12H387v-.13h.08V173h.08v-.12h.08v-.12h.08v-.12h.09v-.12h.08v-.13h.08v-.12h.08v-.12h.08V172h.08v-.12h.09v-.12H388v-.12H388v-.13h.08v-.12h.08v-.12h.09v-.12h.08v-.12h.08V171h.08v-.13h.08v-.12h.08v-.12h.09v-.12h.08v-.12h.08v-.12H389v-.12h.08V170h.08v-.12h.09v-.12h.08v-.12h.08v-.12h.08v-.12h.08v-.13h.08v-.12h.09V169h.08v-.12h.08v-.12H390v-.12h.08v-.12h.08v-.13h.09v-.12h.08v-.12h.08V168h.08v-.12h.08v-.12h.08v-.13h.09v0Z"/><path class="cls-1" d="M191.68,173.15l-3.82.24L188,34.28a35.8,35.8,0,0,1,.35-4.76,33.39,33.39,0,0,0-2.38,4.42,31.1,31.1,0,0,0-2.63,12.62q0,67.64-.08,135.28c10.24-.65,15.37-1,25.62-1.5v-.11h.08v-.12H209V180h.08v-.12h.08v-.12h.08v-.11h.09v-.11h.08v-.12h.08v-.12h.08v-.12h.08V179h.08v-.12h.09v-.11h.08v-.12H210v-.12h.08v-.12h.08v-.12h.08v-.12h.09V178h.08v-.11h.08v-.12h.08v-.12h.08v-.12h.08v-.12h.09v-.11h.08v-.11H211v-.12H211v-.12h.08v-.12h.08v-.12h.09v-.12h.08v-.11h.08v-.11h.08v-.12h.08v-.12h.09V176h.08v-.12h.08v-.11h.08v-.11H212v-.12h.08v-.12h.09v-.12h.08v-.12h.08V175h.08v-.11h.08v-.11h.08v-.12h.09v-.12h.08v-.12h.08v-.12h.08v-.11H213V174h.08v-.12h.09v-.12h.08v-.12h.08v-.12h.08v-.12h.08v-.11h.08v-.11h.09v-.12h.08v-.12h.08v-.12h.08v-.12H214v-.11h.08v-.11h.09v-.12h.08v-.12h.08v-.12h.08V172h.08v-.12h.09v0C206.06,172.27,201,172.57,191.68,173.15Z"/><path class="cls-1" d="M238.46,170.6l-3.77.17.05-71.16c-4.72,3.85-8.47,6.93-14,11.53V112c2.79-2.29,5.68-4.64,9.38-7.65q0,37.49-.05,75c10.25-.47,15.38-.69,25.64-1.07v-.12h.08V178h.08v-.12h.08v-.12H256v-.11h.08v-.12h.09v-.12h.08v-.12h.08v-.12h.08V177h.08v-.11h.08v-.12h.09v-.12h.08v-.12h.08v-.12h.08v-.12H257v-.12h.08V176h.09v-.12h.08v-.12h.08v-.12h.08v-.12h.08v-.12h.08v-.11h.09v-.12h.08v-.12h.08v-.12h.08v-.12H258v-.12H258v-.12h.09v-.11h.08v-.12h.08v-.12h.08v-.12h.08V174h.09v-.12h.08v-.11h.08v-.12h.08v-.12h.08v-.12h.08v-.12H259v-.12h.08V173h.08v-.11h.08v-.12h.08v-.12h.08v-.12h.09v-.12h.08v-.12h.08v-.11h.08V172h.08v-.12h.08v-.12H260v-.12h.08v-.12h.08v-.12h.08v-.11h.08v-.12h.08V171h.09v-.12h.08v-.12h.08v-.12h.08v-.11h.08v-.12h.09v-.12H261v-.12h.08v-.12h.08V170h.08v-.11h.08v-.12h.09v-.07C252.87,170,247.76,170.17,238.46,170.6Z"/><path class="cls-1" d="M332.28,168.28a39.82,39.82,0,0,1-14.55,2.95l-5.51.12h-.94A38.78,38.78,0,0,1,297.8,169a33.82,33.82,0,0,1-19.67-18.18,32.71,32.71,0,0,1-2.93-13.72l.05-103.58a36.11,36.11,0,0,1,.31-4.3,33,33,0,0,0-2.33,4.26,29.69,29.69,0,0,0-2.63,12.31l-.06,103.59a29,29,0,0,0,2.62,12.22,30.2,30.2,0,0,0,17.63,16.3,35.41,35.41,0,0,0,13.1,2.13l5.51-.12a36,36,0,0,0,13.24-2.68,33.12,33.12,0,0,0,10.48-6.81,31.69,31.69,0,0,0,3.84-4.51A39.43,39.43,0,0,1,332.28,168.28Z"/><path class="cls-2" d="M142,4.63A33,33,0,0,1,155,7.16a34.13,34.13,0,0,1,10.61,6.93,32.1,32.1,0,0,1,7.15,10.37,30.86,30.86,0,0,1,2.61,12.63c0,28.13,0,42.19,0,70.32a32.09,32.09,0,0,1-2.62,12.78A34.81,34.81,0,0,1,165.49,131a37.26,37.26,0,0,1-10.6,7.58A34.85,34.85,0,0,1,142,141.9c-5.39.34-8.09.52-13.48.89,0,12.4,0,18.61,0,31-10.23.85-15.35,1.3-25.58,2.25V4.68Zm7.7,30.15a7.07,7.07,0,0,0-2.34-5.23A7.43,7.43,0,0,0,142,27.32l-13.5.17,0,92.46L142,119.2a7.91,7.91,0,0,0,5.37-2.58,7.52,7.52,0,0,0,2.34-5.37Q149.69,73,149.71,34.78Z"/><path class="cls-2" d="M230.69,1.92a32.57,32.57,0,0,1,12.95,2.61,36.17,36.17,0,0,1,10.6,6.89,31.85,31.85,0,0,1,7.16,10A28.91,28.91,0,0,1,264,33.58q0,66.18-.08,132.35c-10.26.39-15.38.6-25.64,1.07q0-37.47.05-75c-8.49,6.9-12.73,10.38-21.22,17.4,0,23.45,0,35.18,0,58.63-10.25.55-15.37.85-25.62,1.49q0-67.64.08-135.28a31.21,31.21,0,0,1,2.63-12.61,32,32,0,0,1,7.17-10.36A33.86,33.86,0,0,1,224.9,1.92Zm7.67,61.65c0-13,0-19.44,0-32.39A6.79,6.79,0,0,0,236,26.1a7.53,7.53,0,0,0-5.37-2.19l-5.78,0a8.33,8.33,0,0,0-5.51,2.14,7.59,7.59,0,0,0-2.21,5.28c0,19.77,0,29.65,0,49.42C225.63,73.84,229.87,70.4,238.36,63.57Z"/><path class="cls-2" d="M317.72,1.92a35,35,0,0,1,13.22,2.45A32.34,32.34,0,0,1,341.41,11a32,32,0,0,1,7,10,29.11,29.11,0,0,1,2.62,12.19v15.9c-10.25,0-15.38,0-25.63.1V30.72a7.26,7.26,0,0,0-7.71-7.18H312.2a7.53,7.53,0,0,0-5.51,2.08,7.63,7.63,0,0,0-2.21,5.17q0,54.12-.05,108.26a7.42,7.42,0,0,0,2.21,5.11,7.33,7.33,0,0,0,5.51,2l5.52-.1a7.45,7.45,0,0,0,7.72-7.33c0-21.28,0-31.93,0-53.21l-9.38.09c0-8.55,0-12.82,0-21.36,14-.11,21-.15,35-.2,0,28.74,0,43.11,0,71.84a29.23,29.23,0,0,1-2.62,12.21,32.64,32.64,0,0,1-7,10.08A33.55,33.55,0,0,1,330.9,165a36,36,0,0,1-13.24,2.67l-5.52.12a35.12,35.12,0,0,1-13.09-2.13,30.12,30.12,0,0,1-17.64-16.29,28.93,28.93,0,0,1-2.61-12.23q0-51.78.05-103.58a29.78,29.78,0,0,1,2.63-12.31,32.47,32.47,0,0,1,7-10.11,31.83,31.83,0,0,1,10.61-6.72,35.13,35.13,0,0,1,13.09-2.46Z"/><path class="cls-2" d="M414.11,4.75h25.63l.06,159.87c-10.26-.22-15.39-.3-25.65-.43q0-49.42,0-98.85L393.18,84.51q0,39.75,0,79.51c-10.37-.05-15.56-.05-25.93,0q0-79.63,0-159.27h25.9c0,20.72,0,31.08,0,51.8l20.94-19.19C414.12,24.31,414.11,17.79,414.11,4.75Z"/><path class="cls-2" d="M456.23,4.5l52.9,0V26.44c-10.91-.07-16.36-.11-27.27-.16,0,11.92,0,17.87,0,29.79,9,.11,13.56.16,22.6.29,0,8.75,0,13.13,0,21.88-9-.18-13.56-.26-22.6-.4,0,26.42,0,39.64,0,66.06,10.92.33,16.38.52,27.29.94,0,8.76,0,13.14,0,21.9-21.16-.93-31.75-1.3-52.93-1.84Q456.27,84.7,456.23,4.5Z"/><path class="cls-2" d="M565.31,27.11l.09,142.35c-10.24-.64-15.37-.94-25.62-1.48l-.09-141.1-19.84-.14c0-8.78,0-13.17,0-21.94l65.3.06c0,9,0,13.47,0,22.44Z"/><path class="cls-2" d="M635.8,27.83q0,73.23,0,146.46c-10.24-.88-15.35-1.3-25.59-2.08l-.07-144.69-19.83-.22c0-9,0-13.46,0-22.44L655.63,5V28.1Z"/><path class="cls-2" d="M669.1,4.68h25.64V195.06H669.1Z"/><path class="cls-1" d="M55.41,56V39.75c0-6.88-2.68-9.81-8.95-9.81-4.23,0-6.77,1.4-8,4.44.2,0,.38-.05.6-.05Q51,34.33,51,47.13V60.41H78.25v0h0v0h0v0h0v-.05h0v0h0v-.05h.05v0h0v0h0V60h0v0h0v0h0v-.05h0v0h0v-.05h.05v0h0v0h0v-.05h0v0h.05v0h0v-.05h0v0h0v0h0v-.05h.05v0h0v-.05h0v0h.05v0h0v-.05h0v0h0v0h0V58.9h.05v0h0v0h0v-.05h.05v0h0v-.05h0v0h0v0h0v-.05h.05v0h0v0h0v-.05h.05v0h0v0h0v-.05h0v0h0v-.05h.05v0h0v0h0V58h.05v0h0v0h0v-.05h0v0h0v-.05h.05v0h0v0h0v0h0v-.05h.05v0h0v-.05h0v0h0v0h0v-.05h0v0h0v0h0v-.05h.05v0h0v-.05h0v0h0v0h0V56.9h0v0h0v0h0v-.05h.05v0h0v-.05h0v0h0v0h0v-.05h0v0h0v0h0v-.05h.05v0h0v0h0v-.05h0v0h0v0h0v-.05h0v0H55.41Z"/><path class="cls-1" d="M23.91,91.85c.53.39,1.05.8,1.59,1.19s1.12.7,1.67,1c12.14,8.29,19.87,17.17,22.68,27.49A36.07,36.07,0,0,1,51,130.67v32c0,.59,0,1.14-.07,1.68,3.09-1.25,4.47-4.12,4.47-9.06V123.29c0-13.83-7.87-25.3-24.07-35.08C13.4,75.42,4.4,59.16,4.4,39.75A55.55,55.55,0,0,1,7.74,19.67Q0,29.48,0,47.13A54.57,54.57,0,0,0,1.08,58C3.62,71.3,11,82.86,23.91,91.85Z"/><path class="cls-1" d="M46.55,197.88C19,197.88,4.4,183.13,4.4,155.24v-36h0v0h0v0l0-2.4v0h0v0h0v0H4.14v0h0v0H4v0H4v0H4v0H3.9v.05h0v0H3.8v0h0v0h0v0H3.65v0h0v0h0v0H3.51v.05h0v0h0v0H3.36v0h0v0H3.26v0h0v0H3.17v0h0v.05H3.07v0H3v0H3v0H2.92v0h0v0h0v0H2.78v0h0v.05h0v0H2.63v0h0v0H2.53v0h0v0H2.44v0h0v0H2.34v.05h0v0h0v0H2.19v0h0v.05h0v0H2.05v0H2v0H2v0H1.9v.05h0v0H1.8v0H1.75v.05h0v0H1.66v0h0v0H1.56v0H1.51v.05H1.46v0H1.41v0h0v.05h0v0H1.27v0H1.22v0H1.17v0h0v.05H1.07v0H1v0H1v.05h0v0H.88v0H.83v0h0v0H.73v.05h0v0H.63v0H.58v.05h0v0H.49v0h0v0h0v0h0v.05H.29v0h0v0h0v0h0v.05h0v0h0v0H0v41.4q0,39.66,39.17,39.65,17.11,0,26.74-7.61A53.84,53.84,0,0,1,46.55,197.88Z"/><path class="cls-2" d="M85.63,155.24q0,39.64-39.08,39.65T7.38,155.24v-39H34.62v39q0,12.7,11.84,12.8h.19q11.74,0,11.74-12.8V123.29q0-22.23-25.5-37.63Q7.39,67.47,7.38,39.75,7.38,0,46.46,0T85.63,39.75V53H58.39V39.75Q58.39,27,46.46,27T34.62,39.75q0,13.67,25.5,32t25.51,51Z"/></g></g></svg>