<svg xmlns="http://www.w3.org/2000/svg" viewBox="0 0 47.71 47.71"><defs><style>.cls-1{fill:#252626;}</style></defs><g id="Livello_2" data-name="Livello 2"><g id="Livello_1-2" data-name="Livello 1"><path class="cls-1" d="M33,47.71H14.74A14.75,14.75,0,0,1,0,33V14.74A14.75,14.75,0,0,1,14.74,0H33A14.75,14.75,0,0,1,47.71,14.74V33A14.75,14.75,0,0,1,33,47.71ZM14.74,5.32a9.44,9.44,0,0,0-9.42,9.42V33a9.44,9.44,0,0,0,9.42,9.43H33A9.44,9.44,0,0,0,42.4,33V14.74A9.44,9.44,0,0,0,33,5.32Z"/><path class="cls-1" d="M23.86,36.05A12.2,12.2,0,1,1,36.05,23.86,12.21,12.21,0,0,1,23.86,36.05Zm0-19.6a7.41,7.41,0,1,0,7.41,7.41A7.41,7.41,0,0,0,23.86,16.45Z"/><path class="cls-1" d="M38.73,11a2.06,2.06,0,1,1-2.06-2.06A2.07,2.07,0,0,1,38.73,11Z"/></g></g></svg>